<svg id="Layer_1" data-name="Layer 1" xmlns="http://www.w3.org/2000/svg" viewBox="0 0 825 464"><defs><style>.cls-1{fill:#c5c6c7;}</style></defs><polygon class="cls-1" points="25.7 9.98 210.21 425.66 62.41 425.66 138.1 349.97 121.58 333.45 29.36 425.66 6 449.02 39.05 449.02 39.05 449.02 220.58 449.02 220.58 449.02 340.09 449.02 145.21 9.98 25.7 9.98"/><polygon class="cls-1" points="616.98 33.34 762.59 33.34 686.9 109.03 703.42 125.55 795.64 33.34 819 9.98 785.95 9.98 606.6 9.98 487.09 9.98 497.46 33.34 671.6 425.66 637.31 425.66 463.18 33.34 452.81 9.98 380.62 9.98 333.29 9.98 517.81 425.66 483.51 425.66 299.01 9.98 179.5 9.98 374.38 449.01 374.38 449.02 374.38 449.02 493.88 449.02 528.18 449.02 647.68 449.02 681.98 449.02 801.48 449.02 791.1 425.66 616.98 33.34"/></svg>